REM DIRINDEX 1\2,1\3,1\4,1\5\6,1\5\7,1\8
REM DIRNAME cjc115,folder01,folder02,folder03,folder04,folder05,folder06,folder07
TITLE ""
FILE "112 Åy112ÅzUnit6 (1273 amnesty_1284 downturn).mp3" MP3
  TRACK 01 AUDIO
    TITLE "0:"
    INDEX 01 00:00:00
  TRACK 02 AUDIO
    TITLE "2:cjc115_4342"
    INDEX 01 00:00:07
  TRACK 03 AUDIO
    TITLE "0:"
    INDEX 01 00:01:24
  TRACK 04 AUDIO
    TITLE "3:cjc115_4343"
    INDEX 01 00:01:34
  TRACK 05 AUDIO
    TITLE "0:"
    INDEX 01 00:02:36
  TRACK 06 AUDIO
    TITLE "4:cjc115_4344"
    INDEX 01 00:02:45
  TRACK 07 AUDIO
    TITLE "0:"
    INDEX 01 00:06:49
  TRACK 08 AUDIO
    TITLE "2:cjc115_4345"
    INDEX 01 00:07:56
  TRACK 09 AUDIO
    TITLE "0:"
    INDEX 01 00:09:12
  TRACK 10 AUDIO
    TITLE "3:cjc115_4346"
    INDEX 01 00:09:24
  TRACK 11 AUDIO
    TITLE "0:"
    INDEX 01 00:10:27
  TRACK 12 AUDIO
    TITLE "4:cjc115_4347"
    INDEX 01 00:10:43
  TRACK 13 AUDIO
    TITLE "0:"
    INDEX 01 00:14:39
  TRACK 14 AUDIO
    TITLE "2:cjc115_4348"
    INDEX 01 00:15:46
  TRACK 15 AUDIO
    TITLE "0:"
    INDEX 01 00:16:67
  TRACK 16 AUDIO
    TITLE "3:cjc115_4349"
    INDEX 01 00:17:00
  TRACK 17 AUDIO
    TITLE "0:"
    INDEX 01 00:18:42
  TRACK 18 AUDIO
    TITLE "4:cjc115_4350"
    INDEX 01 00:18:52
  TRACK 19 AUDIO
    TITLE "0:"
    INDEX 01 00:22:66
  TRACK 20 AUDIO
    TITLE "2:cjc115_4351"
    INDEX 01 00:23:73
  TRACK 21 AUDIO
    TITLE "0:"
    INDEX 01 00:25:09
  TRACK 22 AUDIO
    TITLE "3:cjc115_4352"
    INDEX 01 00:25:19
  TRACK 23 AUDIO
    TITLE "0:"
    INDEX 01 00:27:06
  TRACK 24 AUDIO
    TITLE "4:cjc115_4353"
    INDEX 01 00:27:16
  TRACK 25 AUDIO
    TITLE "0:"
    INDEX 01 00:29:19
  TRACK 26 AUDIO
    TITLE "2:cjc115_4354"
    INDEX 01 00:30:28
  TRACK 27 AUDIO
    TITLE "0:"
    INDEX 01 00:31:55
  TRACK 28 AUDIO
    TITLE "3:cjc115_4355"
    INDEX 01 00:31:65
  TRACK 29 AUDIO
    TITLE "0:"
    INDEX 01 00:34:36
  TRACK 30 AUDIO
    TITLE "4:cjc115_4356"
    INDEX 01 00:34:43
  TRACK 31 AUDIO
    TITLE "0:"
    INDEX 01 00:39:27
  TRACK 32 AUDIO
    TITLE "2:cjc115_4357"
    INDEX 01 00:40:36
  TRACK 33 AUDIO
    TITLE "0:"
    INDEX 01 00:41:57
  TRACK 34 AUDIO
    TITLE "3:cjc115_4358"
    INDEX 01 00:41:59
  TRACK 35 AUDIO
    TITLE "0:"
    INDEX 01 00:43:15
  TRACK 36 AUDIO
    TITLE "4:cjc115_4359"
    INDEX 01 00:43:23
  TRACK 37 AUDIO
    TITLE "0:"
    INDEX 01 00:47:34
  TRACK 38 AUDIO
    TITLE "2:cjc115_4360"
    INDEX 01 00:48:42
  TRACK 39 AUDIO
    TITLE "0:"
    INDEX 01 00:49:69
  TRACK 40 AUDIO
    TITLE "3:cjc115_4361"
    INDEX 01 00:50:01
  TRACK 41 AUDIO
    TITLE "0:"
    INDEX 01 00:52:24
  TRACK 42 AUDIO
    TITLE "4:cjc115_4362"
    INDEX 01 00:52:32
  TRACK 43 AUDIO
    TITLE "0:"
    INDEX 01 00:56:39
  TRACK 44 AUDIO
    TITLE "2:cjc115_4363"
    INDEX 01 00:57:48
  TRACK 45 AUDIO
    TITLE "0:"
    INDEX 01 00:58:54
  TRACK 46 AUDIO
    TITLE "3:cjc115_4364"
    INDEX 01 00:58:66
  TRACK 47 AUDIO
    TITLE "0:"
    INDEX 01 01:00:45
  TRACK 48 AUDIO
    TITLE "4:cjc115_4365"
    INDEX 01 01:00:53
  TRACK 49 AUDIO
    TITLE "0:"
    INDEX 01 01:05:42
  TRACK 50 AUDIO
    TITLE "2:cjc115_4366"
    INDEX 01 01:06:53
  TRACK 51 AUDIO
    TITLE "0:"
    INDEX 01 01:08:09
  TRACK 52 AUDIO
    TITLE "3:cjc115_4367"
    INDEX 01 01:08:21
  TRACK 53 AUDIO
    TITLE "0:"
    INDEX 01 01:11:13
  TRACK 54 AUDIO
    TITLE "4:cjc115_4368"
    INDEX 01 01:11:21
  TRACK 55 AUDIO
    TITLE "0:"
    INDEX 01 01:16:07
  TRACK 56 AUDIO
    TITLE "2:cjc115_4369"
    INDEX 01 01:17:14
  TRACK 57 AUDIO
    TITLE "0:"
    INDEX 01 01:18:33
  TRACK 58 AUDIO
    TITLE "3:cjc115_4370"
    INDEX 01 01:18:45
  TRACK 59 AUDIO
    TITLE "0:"
    INDEX 01 01:20:67
  TRACK 60 AUDIO
    TITLE "4:cjc115_4371"
    INDEX 01 01:20:69
  TRACK 61 AUDIO
    TITLE "0:"
    INDEX 01 01:25:49
  TRACK 62 AUDIO
    TITLE "2:cjc115_4372"
    INDEX 01 01:26:58
  TRACK 63 AUDIO
    TITLE "0:"
    INDEX 01 01:27:61
  TRACK 64 AUDIO
    TITLE "3:cjc115_4373"
    INDEX 01 01:27:69
  TRACK 65 AUDIO
    TITLE "0:"
    INDEX 01 01:30:34
  TRACK 66 AUDIO
    TITLE "4:cjc115_4374"
    INDEX 01 01:30:42
  TRACK 67 AUDIO
    TITLE "0:"
    INDEX 01 01:33:36
  TRACK 68 AUDIO
    TITLE "2:cjc115_4375"
    INDEX 01 01:34:46
  TRACK 69 AUDIO
    TITLE "0:"
    INDEX 01 01:36:00
  TRACK 70 AUDIO
    TITLE "3:cjc115_4376"
    INDEX 01 01:36:01
  TRACK 71 AUDIO
    TITLE "0:"
    INDEX 01 01:39:39
  TRACK 72 AUDIO
    TITLE "4:cjc115_4377"
    INDEX 01 01:39:45
  TRACK 73 AUDIO
    TITLE "0:"
    INDEX 01 01:45:00
